HIERARCHY
ROOT hip
{
  OFFSET 0 90.174 2.4664
  CHANNELS 6 Xposition Yposition Zposition Zrotation Xrotation Yrotation
  JOINT abdomen
  {
    OFFSET 0 -1.186 -1.5018
    CHANNELS 6 Xposition Yposition Zposition Zrotation Xrotation Yrotation
    JOINT abdomen2
    {
      OFFSET 0 9.964 0.2134
      CHANNELS 6 Xposition Yposition Zposition Zrotation Xrotation Yrotation
      JOINT chest
      {
        OFFSET 0 13.134 -3.2573
        CHANNELS 6 Xposition Yposition Zposition Zrotation Xrotation Yrotation
        JOINT neck
        {
          OFFSET 0 20.686 -1.6905
          CHANNELS 6 Xposition Yposition Zposition Zrotation Xrotation Yrotation
          JOINT head
          {
            OFFSET 0 7.238 -0.1237
            CHANNELS 6 Xposition Yposition Zposition Zrotation Xrotation Yrotation
            End Site
            {
              OFFSET 0 0 0
            }
          }
        }
        JOINT lCollar
        {
          OFFSET 1.7069 20.075 5.0056
          CHANNELS 6 Xposition Yposition Zposition Zrotation Xrotation Yrotation
          JOINT lShldr
          {
            OFFSET 13.6458 -0.047 -4.849
            CHANNELS 6 Xposition Yposition Zposition Zrotation Xrotation Yrotation
            JOINT lForeArm
            {
              OFFSET 28.3255 -0.9759 2.2888
              CHANNELS 6 Xposition Yposition Zposition Zrotation Xrotation Yrotation
              JOINT lHand
              {
                OFFSET 22.1583 -0.53 10.8316
                CHANNELS 6 Xposition Yposition Zposition Zrotation Xrotation Yrotation
                JOINT lThumb1
                {
                  OFFSET 0.786 0.112 2.5817
                  CHANNELS 6 Xposition Yposition Zposition Zrotation Xrotation Yrotation
                  JOINT lThumb2
                  {
                    OFFSET 0.3601 -0.878 4.2331
                    CHANNELS 6 Xposition Yposition Zposition Zrotation Xrotation Yrotation
                    JOINT lThumb2_End
                    {
                      OFFSET 1.8127 -1.216 2.2227
                      CHANNELS 6 Xposition Yposition Zposition Zrotation Xrotation Yrotation
                      End Site
                      {
                        OFFSET 0.0181 -0.0122 0.0222
                      }
                    }
                  }
                }
                JOINT lCarpal1
                {
                  OFFSET 0.9571 1.114 1.7695
                  CHANNELS 6 Xposition Yposition Zposition Zrotation Xrotation Yrotation
                  JOINT lIndex1
                  {
                    OFFSET 4.1246 0.487 4.1451
                    CHANNELS 6 Xposition Yposition Zposition Zrotation Xrotation Yrotation
                    JOINT lIndex2
                    {
                      OFFSET 3.4052 -1.454 2.7682
                      CHANNELS 6 Xposition Yposition Zposition Zrotation Xrotation Yrotation
                      JOINT lIndex2_End
                      {
                        OFFSET 1.4531 -1.795 1.2713
                        CHANNELS 6 Xposition Yposition Zposition Zrotation Xrotation Yrotation
                        End Site
                        {
                          OFFSET 0.0145 -0.0179 0.0127
                        }
                      }
                    }
                  }
                  JOINT lMid1
                  {
                    OFFSET 5.6954 0.21 2.1184
                    CHANNELS 6 Xposition Yposition Zposition Zrotation Xrotation Yrotation
                    JOINT lMid2
                    {
                      OFFSET 3.9766 -1.54 2.3863
                      CHANNELS 6 Xposition Yposition Zposition Zrotation Xrotation Yrotation
                      JOINT lMid2_End
                      {
                        OFFSET 1.4042 -1.926 1.125
                        CHANNELS 6 Xposition Yposition Zposition Zrotation Xrotation Yrotation
                        End Site
                        {
                          OFFSET 0.014 -0.0193 0.0113
                        }
                      }
                    }
                  }
                }
                JOINT lCarpal2
                {
                  OFFSET 2.0956 0.66 -0.3894
                  CHANNELS 6 Xposition Yposition Zposition Zrotation Xrotation Yrotation
                  JOINT lRing1
                  {
                    OFFSET 5.0395 -0.09 2.4971
                    CHANNELS 6 Xposition Yposition Zposition Zrotation Xrotation Yrotation
                    JOINT lRing2
                    {
                      OFFSET 3.7921 -1.552 1.4806
                      CHANNELS 6 Xposition Yposition Zposition Zrotation Xrotation Yrotation
                      JOINT lRing2_End
                      {
                        OFFSET 1.4655 -1.808 0.9609
                        CHANNELS 6 Xposition Yposition Zposition Zrotation Xrotation Yrotation
                        End Site
                        {
                          OFFSET 0.0147 -0.0181 0.0096
                        }
                      }
                    }
                  }
                  JOINT lPinky1
                  {
                    OFFSET 4.9141 -1.269 0.3591
                    CHANNELS 6 Xposition Yposition Zposition Zrotation Xrotation Yrotation
                    JOINT lPinky2
                    {
                      OFFSET 3.1477 -1.685 0.8462
                      CHANNELS 6 Xposition Yposition Zposition Zrotation Xrotation Yrotation
                      JOINT lPinky2_End
                      {
                        OFFSET 0.8055 -1.585 0.7955
                        CHANNELS 6 Xposition Yposition Zposition Zrotation Xrotation Yrotation
                        End Site
                        {
                          OFFSET 0.0081 -0.0158 0.008
                        }
                      }
                    }
                  }
                }
              }
            }
          }
        }
        JOINT rCollar
        {
          OFFSET -1.7069 20.075 5.0056
          CHANNELS 6 Xposition Yposition Zposition Zrotation Xrotation Yrotation
          JOINT rShldr
          {
            OFFSET -13.6458 -0.047 -4.849
            CHANNELS 6 Xposition Yposition Zposition Zrotation Xrotation Yrotation
            JOINT rForeArm
            {
              OFFSET -28.3255 -0.9759 2.2888
              CHANNELS 6 Xposition Yposition Zposition Zrotation Xrotation Yrotation
              JOINT rHand
              {
                OFFSET -22.1583 -0.53 10.8316
                CHANNELS 6 Xposition Yposition Zposition Zrotation Xrotation Yrotation
                JOINT rThumb1
                {
                  OFFSET -0.786 0.112 2.5817
                  CHANNELS 6 Xposition Yposition Zposition Zrotation Xrotation Yrotation
                  JOINT rThumb2
                  {
                    OFFSET -0.3601 -0.878 4.2331
                    CHANNELS 6 Xposition Yposition Zposition Zrotation Xrotation Yrotation
                    JOINT rThumb2_End
                    {
                      OFFSET -1.8127 -1.216 2.2227
                      CHANNELS 6 Xposition Yposition Zposition Zrotation Xrotation Yrotation
                      End Site
                      {
                        OFFSET -0.0181 -0.0122 0.0222
                      }
                    }
                  }
                }
                JOINT rCarpal1
                {
                  OFFSET -0.9571 1.114 1.7695
                  CHANNELS 6 Xposition Yposition Zposition Zrotation Xrotation Yrotation
                  JOINT rIndex1
                  {
                    OFFSET -4.1246 0.487 4.1451
                    CHANNELS 6 Xposition Yposition Zposition Zrotation Xrotation Yrotation
                    JOINT rIndex2
                    {
                      OFFSET -3.4052 -1.454 2.7682
                      CHANNELS 6 Xposition Yposition Zposition Zrotation Xrotation Yrotation
                      JOINT rIndex2_End
                      {
                        OFFSET -1.4531 -1.795 1.2713
                        CHANNELS 6 Xposition Yposition Zposition Zrotation Xrotation Yrotation
                        End Site
                        {
                          OFFSET -0.0145 -0.018 0.0127
                        }
                      }
                    }
                  }
                  JOINT rMid1
                  {
                    OFFSET -5.6954 0.21 2.1184
                    CHANNELS 6 Xposition Yposition Zposition Zrotation Xrotation Yrotation
                    JOINT rMid2
                    {
                      OFFSET -3.9766 -1.54 2.3863
                      CHANNELS 6 Xposition Yposition Zposition Zrotation Xrotation Yrotation
                      JOINT rMid2_End
                      {
                        OFFSET -1.4042 -1.926 1.125
                        CHANNELS 6 Xposition Yposition Zposition Zrotation Xrotation Yrotation
                        End Site
                        {
                          OFFSET -0.014 -0.0193 0.0113
                        }
                      }
                    }
                  }
                }
                JOINT rCarpal2
                {
                  OFFSET -2.0956 0.66 -0.3894
                  CHANNELS 6 Xposition Yposition Zposition Zrotation Xrotation Yrotation
                  JOINT rRing1
                  {
                    OFFSET -5.0395 -0.09 2.4971
                    CHANNELS 6 Xposition Yposition Zposition Zrotation Xrotation Yrotation
                    JOINT rRing2
                    {
                      OFFSET -3.7921 -1.552 1.4806
                      CHANNELS 6 Xposition Yposition Zposition Zrotation Xrotation Yrotation
                      JOINT rRing2_End
                      {
                        OFFSET -1.4655 -1.808 0.9609
                        CHANNELS 6 Xposition Yposition Zposition Zrotation Xrotation Yrotation
                        End Site
                        {
                          OFFSET -0.0147 -0.0181 0.0096
                        }
                      }
                    }
                  }
                  JOINT rPinky1
                  {
                    OFFSET -4.9141 -1.269 0.3592
                    CHANNELS 6 Xposition Yposition Zposition Zrotation Xrotation Yrotation
                    JOINT rPinky2
                    {
                      OFFSET -3.1477 -1.685 0.8462
                      CHANNELS 6 Xposition Yposition Zposition Zrotation Xrotation Yrotation
                      JOINT rPinky2_End
                      {
                        OFFSET -0.8055 -1.585 0.7955
                        CHANNELS 6 Xposition Yposition Zposition Zrotation Xrotation Yrotation
                        End Site
                        {
                          OFFSET -0.0081 -0.0158 0.008
                        }
                      }
                    }
                  }
                }
              }
            }
          }
        }
      }
    }
  }
  JOINT lThigh
  {
    OFFSET 8.367 -8.2066 0.5982
    CHANNELS 6 Xposition Yposition Zposition Zrotation Xrotation Yrotation
    JOINT lShin
    {
      OFFSET 2.1923 -43.463 -0.4932
      CHANNELS 6 Xposition Yposition Zposition Zrotation Xrotation Yrotation
      JOINT lFoot
      {
        OFFSET 0.7333 -45.8593 -2.6451
        CHANNELS 6 Xposition Yposition Zposition Zrotation Xrotation Yrotation
        End Site
        {
          OFFSET 2.6618 -4.2699 12.3931
        }
      }
    }
  }
  JOINT rThigh
  {
    OFFSET -8.367 -8.2066 0.5982
    CHANNELS 6 Xposition Yposition Zposition Zrotation Xrotation Yrotation
    JOINT rShin
    {
      OFFSET -2.1923 -43.463 -0.4931
      CHANNELS 6 Xposition Yposition Zposition Zrotation Xrotation Yrotation
      JOINT rFoot
      {
        OFFSET -0.7333 -45.8593 -2.6451
        CHANNELS 6 Xposition Yposition Zposition Zrotation Xrotation Yrotation
        End Site
        {
          OFFSET -2.6618 -4.2699 12.3931
        }
      }
    }
  }
}
MOTION
Frames:	4
Frame Time:	0.0333333
-0.00144077 78.0701 -14.1711 0.0104733 -9.49796 -179.874 -1.73472e-018 -1.186 -1.5018 -1.07292 1.28111 -0.323084 -2.22045e-016 9.964 0.2134 -2.13939 2.56802 -0.622343 8.88178e-016 13.134 -3.2573 -2.13939 2.56803 -0.622344 0 20.686 -1.6905 2.51208e-005 -23.0548 1.17173e-005 -1.77636e-015 7.238 -0.1237 -3.63952e-007 -27.0676 -1.55754e-007 1.7069 20.075 5.0056 -16.0337 24.1509 -26.6525 13.6458 -0.047 -4.849 -43.392 -6.87026 40.1454 28.3255 -0.9759 2.2888 -24.7314 -14.5555 -46.9415 22.1583 -0.53 10.8316 -15.083 5.87298 -4.68983 0.786 0.112 2.5817 1.19271e-015 0 -1.59028e-015 0.3601 -0.878 4.2331 1.19271e-015 -1.59028e-015 -0 1.8127 -1.216 2.2227 5.96354e-016 0 -0 0.9571 1.114 1.7695 5.96354e-016 1.59028e-015 -3.18055e-015 4.1246 0.487 4.1451 -7.95139e-016 0 6.36111e-015 3.4052 -1.454 2.7682 1.98785e-016 -1.59028e-015 3.18055e-015 1.4531 -1.795 1.2713 5.96354e-016 -1.59028e-015 1.59028e-015 5.6954 0.21 2.1184 -7.95139e-016 0 6.36111e-015 3.9766 -1.54 2.3863 1.98785e-016 -1.59028e-015 3.18055e-015 1.4042 -1.926 1.125 5.96354e-016 -1.59028e-015 1.59028e-015 2.0956 0.66 -0.3894 5.96354e-016 1.59028e-015 -3.18055e-015 5.0395 -0.09 2.4971 -7.95139e-016 0 6.36111e-015 3.7921 -1.552 1.4806 1.98785e-016 -1.59028e-015 3.18055e-015 1.4655 -1.808 0.9609 5.96354e-016 -1.59028e-015 1.59028e-015 4.9141 -1.269 0.3591 -7.95139e-016 0 6.36111e-015 3.1477 -1.685 0.8462 1.98785e-016 -1.59028e-015 3.18055e-015 0.8055 -1.585 0.7955 5.96354e-016 -1.59028e-015 1.59028e-015 -1.7069 20.075 5.0056 18.7101 24.3959 26.6159 -13.6458 -0.047 -4.849 42.9875 -6.84653 -39.1554 -28.3255 -0.9759 2.2888 24.3681 -14.0193 45.9349 -22.1583 -0.53 10.8316 15.0589 5.827 4.79724 -0.786 0.112 2.5817 -2.69508e-007 1.20222e-006 -2.07948e-007 -0.3601 -0.878 4.2331 3.97569e-016 0 4.77083e-015 -1.8127 -1.216 2.2227 1.98785e-016 0 1.59028e-015 -0.9571 1.114 1.7695 5.96354e-016 3.18055e-015 -1.59028e-015 -4.1246 0.487 4.1451 -2.69508e-007 1.20222e-006 -2.07948e-007 -3.4052 -1.454 2.7682 5.96354e-016 3.18055e-015 -0 -1.4531 -1.795 1.2713 1.98785e-016 1.59028e-015 3.18055e-015 -5.6954 0.21 2.1184 -2.69508e-007 1.20222e-006 -2.07948e-007 -3.9766 -1.54 2.3863 5.96354e-016 3.18055e-015 -0 -1.4042 -1.926 1.125 1.98785e-016 1.59028e-015 3.18055e-015 -2.0956 0.66 -0.3894 5.96354e-016 3.18055e-015 -1.59028e-015 -5.0395 -0.09 2.4971 -2.69508e-007 1.20222e-006 -2.07948e-007 -3.7921 -1.552 1.4806 5.96354e-016 3.18055e-015 -0 -1.4655 -1.808 0.9609 1.98785e-016 1.59028e-015 3.18055e-015 -4.9141 -1.269 0.3592 -2.69508e-007 1.20222e-006 -2.07948e-007 -3.1477 -1.685 0.8462 5.96354e-016 3.18055e-015 -0 -0.8055 -1.585 0.7955 1.98785e-016 1.59028e-015 3.18055e-015 8.367 -8.2066 0.5982 29.2762 -47.2124 31.716 2.1923 -43.463 -0.4932 -13.72 35.049 15.6398 0.7333 -45.8593 -2.6451 -12.0763 3.22377 0.354838 -8.367 -8.2066 0.5982 -29.2961 -47.1985 -31.7457 -2.1923 -43.463 -0.4931 13.7209 35.0634 -15.6391 -0.7333 -45.8593 -2.6451 12.0509 3.20683 -0.352384 
-0.00140588 78.0525 -14.1556 0.0104576 -9.831 -179.878 0 -1.186 -1.5018 -1.07315 1.31723 -0.321115 2.22045e-016 9.964 0.2134 -2.13975 2.64022 -0.617734 0 13.134 -3.2573 -2.13975 2.64023 -0.617734 0 20.686 -1.6905 -2.61321e-005 -22.6105 -9.53597e-006 0 7.238 -0.1237 1.0975e-006 -26.6365 5.8998e-007 1.7069 20.075 5.0056 -16.4123 24.3118 -26.4366 13.6458 -0.047 -4.849 -43.0703 -6.69366 39.9636 28.3255 -0.9759 2.2888 -24.6503 -14.7519 -46.8045 22.1583 -0.53 10.8316 -15.083 5.873 -4.68984 0.786 0.112 2.5817 -2.18663e-015 -1.59028e-015 -0 0.3601 -0.878 4.2331 -2.38542e-015 1.59028e-015 3.18055e-015 1.8127 -1.216 2.2227 -3.18055e-015 0 4.77083e-015 0.9571 1.114 1.7695 -3.97569e-016 -3.18055e-015 -1.59028e-015 4.1246 0.487 4.1451 -2.5842e-015 -1.59028e-015 7.95139e-015 3.4052 -1.454 2.7682 -2.98177e-015 0 3.18055e-015 1.4531 -1.795 1.2713 -2.5842e-015 3.18055e-015 -0 5.6954 0.21 2.1184 -2.5842e-015 -1.59028e-015 7.95139e-015 3.9766 -1.54 2.3863 -2.98177e-015 0 3.18055e-015 1.4042 -1.926 1.125 -2.5842e-015 3.18055e-015 -0 2.0956 0.66 -0.3894 -3.97569e-016 -3.18055e-015 -1.59028e-015 5.0395 -0.09 2.4971 -2.5842e-015 -1.59028e-015 7.95139e-015 3.7921 -1.552 1.4806 -2.98177e-015 0 3.18055e-015 1.4655 -1.808 0.9609 -2.5842e-015 3.18055e-015 -0 4.9141 -1.269 0.3591 -2.5842e-015 -1.59028e-015 7.95139e-015 3.1477 -1.685 0.8462 -2.98177e-015 0 3.18055e-015 0.8055 -1.585 0.7955 -2.5842e-015 3.18055e-015 -0 -1.7069 20.075 5.0056 19.1124 24.5766 26.3816 -13.6458 -0.047 -4.849 42.6842 -6.68303 -38.9534 -28.3255 -0.9759 2.2888 24.2727 -14.2327 45.7391 -22.1583 -0.53 10.8316 15.0589 5.827 4.79724 -0.786 0.112 2.5817 -5.96354e-016 1.59028e-015 -0 -0.3601 -0.878 4.2331 4.6355e-006 1.59142e-007 -1.02379e-006 -1.8127 -1.216 2.2227 3.97569e-016 -1.59028e-015 -1.59028e-015 -0.9571 1.114 1.7695 -5.96354e-016 1.59028e-015 -0 -4.1246 0.487 4.1451 -3.97569e-016 1.59028e-015 4.77083e-015 -3.4052 -1.454 2.7682 4.6355e-006 1.59142e-007 -1.02379e-006 -1.4531 -1.795 1.2713 5.96354e-016 -1.59028e-015 -1.59028e-015 -5.6954 0.21 2.1184 -3.97569e-016 1.59028e-015 4.77083e-015 -3.9766 -1.54 2.3863 4.6355e-006 1.59142e-007 -1.02379e-006 -1.4042 -1.926 1.125 5.96354e-016 -1.59028e-015 -1.59028e-015 -2.0956 0.66 -0.3894 -5.96354e-016 1.59028e-015 -0 -5.0395 -0.09 2.4971 -3.97569e-016 1.59028e-015 4.77083e-015 -3.7921 -1.552 1.4806 4.6355e-006 1.59142e-007 -1.02379e-006 -1.4655 -1.808 0.9609 5.96354e-016 -1.59028e-015 -1.59028e-015 -4.9141 -1.269 0.3592 -3.97569e-016 1.59028e-015 4.77083e-015 -3.1477 -1.685 0.8462 4.6355e-006 1.59142e-007 -1.02379e-006 -0.8055 -1.585 0.7955 5.96354e-016 -1.59028e-015 -1.59028e-015 8.367 -8.2066 0.5982 29.4275 -47.5379 31.871 2.1923 -43.463 -0.4932 -13.7209 35.0506 15.6398 0.7333 -45.8593 -2.6451 -12.0767 3.22157 0.354609 -8.367 -8.2066 0.5982 -29.4479 -47.5243 -31.9013 -2.1923 -43.463 -0.4931 13.7217 35.0647 -15.639 -0.7333 -45.8593 -2.6451 12.0513 3.20473 -0.352161 
-0.00137064 78.0346 -14.14 0.0104368 -10.1641 -179.883 0 -1.186 -1.5018 -1.07337 1.35334 -0.319142 2.22045e-016 9.964 0.2134 -2.14009 2.71241 -0.613119 0 13.134 -3.2573 -2.14009 2.71241 -0.613119 0 20.686 -1.6905 -4.25207e-005 -22.1654 -1.45239e-005 -1.77636e-015 7.238 -0.1237 -2.20826e-006 -26.205 -8.8877e-007 1.7069 20.075 5.0056 -16.7923 24.4714 -26.2192 13.6458 -0.047 -4.849 -42.7481 -6.51801 39.7807 28.3255 -0.9759 2.2888 -24.5686 -14.9483 -46.6671 22.1583 -0.53 10.8316 -15.083 5.87299 -4.68984 0.786 0.112 2.5817 1.78906e-015 -1.59028e-015 1.59028e-015 0.3601 -0.878 4.2331 5.44368e-006 -1.58429e-006 2.85381e-007 1.8127 -1.216 2.2227 3.93955e-006 -5.27187e-007 1.58111e-006 0.9571 1.114 1.7695 9.93923e-016 -1.59028e-015 -0 4.1246 0.487 4.1451 -1.76556e-031 1.59028e-015 6.36111e-015 3.4052 -1.454 2.7682 5.44368e-006 -1.58429e-006 2.85381e-007 1.4531 -1.795 1.2713 3.93955e-006 -5.27187e-007 1.58111e-006 5.6954 0.21 2.1184 -1.76556e-031 1.59028e-015 6.36111e-015 3.9766 -1.54 2.3863 5.44368e-006 -1.58429e-006 2.85381e-007 1.4042 -1.926 1.125 3.93955e-006 -5.27187e-007 1.58111e-006 2.0956 0.66 -0.3894 9.93923e-016 -1.59028e-015 -0 5.0395 -0.09 2.4971 -1.76556e-031 1.59028e-015 6.36111e-015 3.7921 -1.552 1.4806 5.44368e-006 -1.58429e-006 2.85381e-007 1.4655 -1.808 0.9609 3.93955e-006 -5.27187e-007 1.58111e-006 4.9141 -1.269 0.3591 -1.76556e-031 1.59028e-015 6.36111e-015 3.1477 -1.685 0.8462 5.44368e-006 -1.58429e-006 2.85381e-007 0.8055 -1.585 0.7955 3.93955e-006 -5.27187e-007 1.58111e-006 -1.7069 20.075 5.0056 19.5162 24.756 26.1455 -13.6458 -0.047 -4.849 42.3802 -6.52053 -38.7504 -28.3255 -0.9759 2.2888 24.1764 -14.4458 45.5427 -22.1583 -0.53 10.8316 15.0589 5.827 4.79724 -0.786 0.112 2.5817 1.98785e-016 -1.59028e-015 -1.59028e-015 -0.3601 -0.878 4.2331 3.97569e-016 -3.18055e-015 -1.59028e-015 -1.8127 -1.216 2.2227 3.97569e-016 1.59028e-015 -0 -0.9571 1.114 1.7695 -0 -1.59028e-015 -0 -4.1246 0.487 4.1451 -7.95139e-016 -3.18055e-015 4.77083e-015 -3.4052 -1.454 2.7682 5.96354e-016 0 -1.59028e-015 -1.4531 -1.795 1.2713 -1.98785e-016 0 -0 -5.6954 0.21 2.1184 -7.95139e-016 -3.18055e-015 4.77083e-015 -3.9766 -1.54 2.3863 5.96354e-016 0 -1.59028e-015 -1.4042 -1.926 1.125 -1.98785e-016 0 -0 -2.0956 0.66 -0.3894 -0 -1.59028e-015 -0 -5.0395 -0.09 2.4971 -7.95139e-016 -3.18055e-015 4.77083e-015 -3.7921 -1.552 1.4806 5.96354e-016 0 -1.59028e-015 -1.4655 -1.808 0.9609 -1.98785e-016 0 -0 -4.9141 -1.269 0.3592 -7.95139e-016 -3.18055e-015 4.77083e-015 -3.1477 -1.685 0.8462 5.96354e-016 0 -1.59028e-015 -0.8055 -1.585 0.7955 -1.98785e-016 0 -0 8.367 -8.2066 0.5982 29.5812 -47.8631 32.0284 2.1923 -43.463 -0.4932 -13.7219 35.0522 15.6398 0.7333 -45.8593 -2.6451 -12.0772 3.21936 0.354386 -8.367 -8.2066 0.5982 -29.602 -47.8499 -32.0592 -2.1923 -43.463 -0.4931 13.7226 35.0663 -15.639 -0.7333 -45.8593 -2.6451 12.0518 3.20252 -0.351936 
-0.00133454 78.0166 -14.1243 0.0103803 -10.4973 -179.887 -1.73472e-018 -1.186 -1.5018 -1.07362 1.38946 -0.317173 0 9.964 0.2134 -2.14047 2.78463 -0.60851 0 13.134 -3.2573 -2.14047 2.78463 -0.608509 -1.77636e-015 20.686 -1.6905 9.34034e-006 -21.7201 1.67602e-006 0 7.238 -0.1237 7.54855e-007 -25.773 -3.70562e-007 1.7069 20.075 5.0056 -17.1735 24.6297 -26.0003 13.6458 -0.047 -4.849 -42.4253 -6.34332 39.5969 28.3255 -0.9759 2.2888 -24.4864 -15.1444 -46.5293 22.1583 -0.53 10.8316 -15.083 5.87301 -4.68984 0.786 0.112 2.5817 -1.02877e-008 -5.67686e-007 -6.29393e-007 0.3601 -0.878 4.2331 1.98785e-016 1.59028e-015 3.18055e-015 1.8127 -1.216 2.2227 -3.97569e-016 1.59028e-015 3.18055e-015 0.9571 1.114 1.7695 7.95139e-016 -3.18055e-015 -1.59028e-015 4.1246 0.487 4.1451 -1.02877e-008 -5.67686e-007 -6.29393e-007 3.4052 -1.454 2.7682 -1.19271e-015 3.18055e-015 1.59028e-015 1.4531 -1.795 1.2713 -1.76556e-031 3.18055e-015 3.18055e-015 5.6954 0.21 2.1184 -1.02877e-008 -5.67686e-007 -6.29393e-007 3.9766 -1.54 2.3863 -1.19271e-015 3.18055e-015 1.59028e-015 1.4042 -1.926 1.125 -1.76556e-031 3.18055e-015 3.18055e-015 2.0956 0.66 -0.3894 7.95139e-016 -3.18055e-015 -1.59028e-015 5.0395 -0.09 2.4971 -1.02877e-008 -5.67686e-007 -6.29393e-007 3.7921 -1.552 1.4806 -1.19271e-015 3.18055e-015 1.59028e-015 1.4655 -1.808 0.9609 -1.76556e-031 3.18055e-015 3.18055e-015 4.9141 -1.269 0.3591 -1.02877e-008 -5.67686e-007 -6.29393e-007 3.1477 -1.685 0.8462 -1.19271e-015 3.18055e-015 1.59028e-015 0.8055 -1.585 0.7955 -1.76556e-031 3.18055e-015 3.18055e-015 -1.7069 20.075 5.0056 19.9215 24.9338 25.9077 -13.6458 -0.047 -4.849 42.0758 -6.35908 -38.5466 -28.3255 -0.9759 2.2888 24.0793 -14.6587 45.3457 -22.1583 -0.53 10.8316 15.0589 5.82701 4.79724 -0.786 0.112 2.5817 4.84591e-006 -1.01084e-006 3.84891e-007 -0.3601 -0.878 4.2331 1.39149e-015 -1.59028e-015 -6.36111e-015 -1.8127 -1.216 2.2227 7.95139e-016 0 -4.77083e-015 -0.9571 1.114 1.7695 1.98785e-016 0 -0 -4.1246 0.487 4.1451 4.84591e-006 -1.01084e-006 3.84891e-007 -3.4052 -1.454 2.7682 5.96354e-016 -1.59028e-015 -3.18055e-015 -1.4531 -1.795 1.2713 9.93923e-016 0 -3.18055e-015 -5.6954 0.21 2.1184 4.84591e-006 -1.01084e-006 3.84891e-007 -3.9766 -1.54 2.3863 5.96354e-016 -1.59028e-015 -3.18055e-015 -1.4042 -1.926 1.125 9.93923e-016 0 -3.18055e-015 -2.0956 0.66 -0.3894 1.98785e-016 0 -0 -5.0395 -0.09 2.4971 4.84591e-006 -1.01084e-006 3.84891e-007 -3.7921 -1.552 1.4806 5.96354e-016 -1.59028e-015 -3.18055e-015 -1.4655 -1.808 0.9609 9.93923e-016 0 -3.18055e-015 -4.9141 -1.269 0.3592 4.84591e-006 -1.01084e-006 3.84891e-007 -3.1477 -1.685 0.8462 5.96354e-016 -1.59028e-015 -3.18055e-015 -0.8055 -1.585 0.7955 9.93923e-016 0 -3.18055e-015 8.367 -8.2066 0.5982 29.7372 -48.1882 32.1881 2.1923 -43.463 -0.4932 -13.7228 35.0538 15.6398 0.7333 -45.8593 -2.6451 -12.0776 3.21716 0.354152 -8.367 -8.2066 0.5982 -29.7585 -48.1752 -32.2194 -2.1923 -43.463 -0.4931 13.7235 35.0678 -15.6389 -0.7333 -45.8593 -2.6451 12.0523 3.20036 -0.35172 
